<svg width="34" height="59" viewBox="0 0 34 59" fill="none" xmlns="http://www.w3.org/2000/svg">
<path d="M23.8238 1.45858C23.386 0.858006 22.5443 0.726006 21.9438 1.16374C21.3432 1.60148 21.2112 2.44319 21.6489 3.04376L23.8238 1.45858ZM12.4862 58.0114C13.1835 58.2685 13.9572 57.9117 14.2143 57.2144L18.4046 45.8519C18.6618 45.1546 18.305 44.3809 17.6077 44.1238C16.9104 43.8666 16.1368 44.2234 15.8796 44.9207L12.1549 55.0207L2.05484 51.296C1.35758 51.0389 0.583881 51.3957 0.326744 52.093C0.0696064 52.7902 0.426399 53.5639 1.12366 53.8211L12.4862 58.0114ZM11.604 22.3091L11.2911 21.0003L11.604 22.3091ZM28.9023 27.818L28.3352 26.5977L28.9023 27.818ZM11.2911 21.0003C9.35499 21.4632 7.87405 22.4696 6.82297 23.8853C5.7907 25.2756 5.22399 26.9898 4.96002 28.8184C4.43562 32.451 5.06211 36.8591 6.06036 41.0167C7.06593 45.2048 8.48381 49.2768 9.64457 52.2913C10.226 53.8013 10.7453 55.0521 11.12 55.9271C11.3074 56.3647 11.4588 56.7086 11.5638 56.9443C11.6163 57.0621 11.6573 57.1529 11.6854 57.2149C11.6995 57.2458 11.7103 57.2696 11.7178 57.2859C11.7215 57.2941 11.7244 57.3004 11.7264 57.3048C11.7274 57.307 11.7282 57.3087 11.7288 57.31C11.7291 57.3106 11.7294 57.3112 11.7295 57.3115C11.7297 57.312 11.7299 57.3123 12.9518 56.7488C14.1738 56.1853 14.1738 56.1854 14.1738 56.1854C14.1737 56.1853 14.1737 56.1851 14.1735 56.1848C14.1732 56.1842 14.1727 56.1831 14.172 56.1815C14.1705 56.1783 14.1682 56.1732 14.1651 56.1663C14.1588 56.1525 14.1491 56.1313 14.1362 56.103C14.1105 56.0463 14.072 55.9609 14.0219 55.8486C13.9219 55.6241 13.7758 55.2923 13.594 54.8677C13.2302 54.0182 12.7237 52.7984 12.1561 51.3242C11.0186 48.3703 9.645 44.4191 8.67724 40.3884C7.70216 36.3273 7.1735 32.3212 7.62365 29.2029C7.84697 27.656 8.29996 26.4106 8.98376 25.4896C9.64875 24.594 10.5802 23.9373 11.9169 23.6178L11.2911 21.0003ZM22.7363 2.25117C21.6489 3.04376 21.6488 3.04364 21.6488 3.0436C21.6489 3.04369 21.6489 3.04373 21.649 3.04392C21.6493 3.04429 21.6498 3.04498 21.6505 3.04599C21.652 3.04801 21.6544 3.05131 21.6577 3.05586C21.6643 3.06496 21.6745 3.07908 21.6882 3.09807C21.7155 3.13606 21.7567 3.19354 21.8104 3.26934C21.918 3.42096 22.0759 3.6458 22.2745 3.93457C22.6717 4.51233 23.2306 5.34485 23.8732 6.35801C25.1615 8.38929 26.7719 11.1245 28.0908 13.9763C29.4227 16.8563 30.3973 19.7296 30.5246 22.0702C30.5876 23.2282 30.4379 24.1726 30.0939 24.9038C29.7632 25.6068 29.2202 26.1864 28.3352 26.5977L29.4694 29.0383C30.9129 28.3674 31.9236 27.3365 32.5291 26.0495C33.1213 24.7908 33.2903 23.3658 33.2119 21.924C33.0563 19.065 31.9072 15.8172 30.5334 12.8466C29.1466 9.84772 27.469 7.00278 26.1459 4.91659C25.4828 3.87102 24.9051 3.01048 24.4921 2.40985C24.2856 2.10943 24.1201 1.87375 24.0054 1.71215C23.9481 1.63134 23.9035 1.56903 23.8728 1.52638C23.8574 1.50506 23.8456 1.48865 23.8374 1.4773C23.8333 1.47163 23.8301 1.46722 23.8278 1.46409C23.8266 1.46253 23.8257 1.46129 23.8251 1.46037C23.8247 1.4599 23.8244 1.45946 23.8242 1.45923C23.824 1.45886 23.8238 1.45858 22.7363 2.25117ZM28.3352 26.5977C25.935 27.7131 23.9928 26.5185 21.2255 24.482C18.716 22.6353 15.4593 20.0038 11.2911 21.0003L11.9169 23.6178C14.6441 22.9658 16.8218 24.5827 19.6303 26.6495C22.181 28.5266 25.4402 30.9107 29.4694 29.0383L28.3352 26.5977Z" fill="#9E1D37"/>
</svg>
