<svg width="10" height="10" viewBox="0 0 10 10" fill="none" xmlns="http://www.w3.org/2000/svg">
<path d="M8.71778 0.219994C9.01111 -0.0733311 9.48668 -0.0733314 9.78001 0.219994C10.0733 0.513318 10.0733 0.988892 9.78001 1.28222L1.28222 9.78001C0.988892 10.0733 0.513319 10.0733 0.219994 9.78001C-0.0733312 9.48668 -0.0733312 9.01111 0.219994 8.71778L8.71778 0.219994Z" fill="#333333"/>
<path d="M8.71778 9.78001C9.01111 10.0733 9.48668 10.0733 9.78001 9.78001C10.0733 9.48668 10.0733 9.01111 9.78001 8.71778L1.28222 0.219994C0.988893 -0.0733311 0.513319 -0.0733314 0.219994 0.219994C-0.0733312 0.513318 -0.0733312 0.988892 0.219994 1.28222L8.71778 9.78001Z" fill="#333333"/>
</svg>
