<svg width="13" height="18" viewBox="0 0 13 18" fill="none" xmlns="http://www.w3.org/2000/svg">
<path d="M9.0305 5.5L3.9695 5.5C3.87499 5.5 3.78468 5.53739 3.71864 5.60637C3.06557 6.2885 -0.443935 10.1128 0.0468896 13.0301C0.494498 15.6906 2.18743 15.9724 2.40436 15.9977C2.41982 15.9995 2.43507 16 2.45064 16H10.5494C10.5649 16 10.5802 15.9995 10.5956 15.9977C10.8126 15.9724 12.5055 15.6906 12.9531 13.0301C13.4439 10.1128 9.93443 6.2885 9.28136 5.60637C9.21532 5.53739 9.12501 5.5 9.0305 5.5Z" fill="#9E1D37"/>
<path d="M9.0366 4.76316H3.9634C3.88251 4.76316 3.81149 4.70827 3.78959 4.62882L3.49293 3.55267C3.3681 3.09985 3.68547 2.64526 4.14572 2.61761L5.3992 2.5423C5.3992 2.5423 6.01936 2 6.49999 2C6.98063 2 7.6008 2.5423 7.6008 2.5423L8.85428 2.61761C9.31454 2.64526 9.6319 3.09985 9.50707 3.55267L9.21041 4.62882C9.18851 4.70827 9.11749 4.76316 9.0366 4.76316Z" fill="#9E1D37"/>
<path d="M4.4939 11.4146C4.4939 11.5337 4.57932 11.6222 4.69892 11.6222H6.30776L5.4592 14.0954C5.34815 14.4099 5.65284 14.5779 5.84361 14.3214L8.432 10.8528C8.48041 10.7887 8.50604 10.7276 8.50604 10.6574C8.50604 10.5413 8.42061 10.4497 8.30102 10.4497H6.69217L7.54073 7.97652C7.65178 7.66202 7.3471 7.49409 7.15632 7.75362L4.56793 11.2192C4.51952 11.2864 4.4939 11.3474 4.4939 11.4146Z" fill="#FFDA22"/>
</svg>
