<svg width="12" height="16" viewBox="0 0 12 16" fill="none" xmlns="http://www.w3.org/2000/svg">
<path d="M8.16902 5L3.83102 5C3.75001 5 3.6726 5.03205 3.616 5.09117C3.05622 5.67586 0.0480734 8.95379 0.46878 11.4544C0.852444 13.7348 2.30353 13.9764 2.48947 13.9981C2.50272 13.9996 2.51579 14 2.52913 14H9.4709C9.48424 14 9.49732 13.9996 9.51057 13.9981C9.69651 13.9764 11.1476 13.7348 11.5313 11.4544C11.952 8.95379 8.94381 5.67586 8.38404 5.09117C8.32743 5.03204 8.25003 5 8.16902 5Z" fill="#FAFAFF"/>
<path d="M8.17425 4.36842H3.82579C3.75645 4.36842 3.69558 4.32137 3.67681 4.25327L3.42253 3.33086C3.31554 2.94273 3.58756 2.55308 3.98207 2.52938L5.05648 2.46483C5.05648 2.46483 5.58804 2 6.00001 2C6.41198 2 6.94356 2.46483 6.94356 2.46483L8.01797 2.52938C8.41248 2.55308 8.6845 2.94273 8.57751 3.33086L8.32323 4.25327C8.30446 4.32137 8.24358 4.36842 8.17425 4.36842Z" fill="#FAFAFF"/>
<path d="M4.2807 10.0696C4.2807 10.1716 4.35392 10.2475 4.45643 10.2475H5.83544L5.1081 12.3674C5.01292 12.637 5.27408 12.781 5.4376 12.5611L7.65622 9.588C7.69771 9.53304 7.71968 9.4807 7.71968 9.4205C7.71968 9.32105 7.64646 9.24253 7.54395 9.24253H6.16494L6.89227 7.12263C6.98746 6.85306 6.7263 6.70911 6.56278 6.93157L4.34416 9.90206C4.30267 9.95964 4.2807 10.012 4.2807 10.0696Z" fill="#FFDA22"/>
</svg>
