<svg width="18" height="18" viewBox="0 0 18 18" fill="none" xmlns="http://www.w3.org/2000/svg">
<path d="M9 17.4736C4.32666 17.4736 0.533203 13.6802 0.533203 9.00684C0.533203 4.3335 4.32666 0.540039 9 0.540039C13.6733 0.540039 17.4668 4.3335 17.4668 9.00684C17.4668 13.6802 13.6733 17.4736 9 17.4736ZM9 4.56592C9.78027 4.56592 10.5107 4.76514 11.1499 5.12207L13.0508 3.22119C11.9053 2.41602 10.5107 1.95117 9 1.95117C7.50586 1.95117 6.11133 2.41602 4.97412 3.20459L6.875 5.11377C7.50586 4.76514 8.22803 4.56592 9 4.56592ZM1.94434 9.00684C1.94434 10.5176 2.41748 11.9121 3.22266 13.0576L5.11523 11.1567C4.7666 10.5259 4.55908 9.78711 4.55908 9.00684C4.55908 8.24316 4.75 7.5293 5.09033 6.89844L3.18945 4.99756C2.40088 6.13477 1.94434 7.521 1.94434 9.00684ZM13.4409 9.00684C13.4409 9.77881 13.2417 10.5093 12.8931 11.1401L14.7939 13.041C15.5908 11.8955 16.0557 10.5093 16.0557 9.00684C16.0557 7.521 15.5991 6.15137 14.8271 5.02246L12.918 6.92334C13.25 7.5459 13.4409 8.25146 13.4409 9.00684ZM9 12.0449C10.6768 12.0449 12.0381 10.6836 12.0381 9.00684C12.0381 7.33008 10.6768 5.96875 9 5.96875C7.32324 5.96875 5.96191 7.33008 5.96191 9.00684C5.96191 10.6836 7.32324 12.0449 9 12.0449ZM9 16.0625C10.4858 16.0625 11.8638 15.606 13.001 14.8174L11.1001 12.9165C10.4775 13.2568 9.75537 13.4478 9 13.4478C8.25293 13.4478 7.53906 13.2568 6.9248 12.9248L5.01562 14.834C6.15283 15.606 7.52246 16.0625 9 16.0625Z" fill="#9E1D37"/>
</svg>
