<svg width="16" height="16" viewBox="0 0 16 16" fill="none" xmlns="http://www.w3.org/2000/svg">
<path d="M7.80615 15.6697C3.51431 15.6697 0.0305223 12.1859 0.0305223 7.89406C0.0305223 3.60222 3.51431 0.118432 7.80615 0.118432C12.098 0.118432 15.5818 3.60222 15.5818 7.89406C15.5818 12.1859 12.098 15.6697 7.80615 15.6697ZM7.80615 3.81567C8.52273 3.81567 9.19357 3.99862 9.78055 4.32642L11.5263 2.58071C10.4743 1.84127 9.19357 1.41437 7.80615 1.41437C6.43398 1.41437 5.15329 1.84127 4.10892 2.56547L5.85462 4.3188C6.43398 3.99862 7.0972 3.81567 7.80615 3.81567ZM1.32646 7.89406C1.32646 9.28148 1.76098 10.5622 2.50043 11.6142L4.23851 9.86846C3.91834 9.2891 3.72776 8.61064 3.72776 7.89406C3.72776 7.19273 3.90309 6.53714 4.21564 5.95778L2.46994 4.21207C1.74573 5.25645 1.32646 6.52951 1.32646 7.89406ZM11.8845 7.89406C11.8845 8.60302 11.7016 9.27385 11.3814 9.85322L13.1271 11.5989C13.8589 10.5469 14.2858 9.27385 14.2858 7.89406C14.2858 6.52951 13.8666 5.27169 13.1576 4.23494L11.4043 5.98065C11.7092 6.55238 11.8845 7.20035 11.8845 7.89406ZM7.80615 10.6841C9.34603 10.6841 10.5962 9.43394 10.5962 7.89406C10.5962 6.35418 9.34603 5.10398 7.80615 5.10398C6.26627 5.10398 5.01607 6.35418 5.01607 7.89406C5.01607 9.43394 6.26627 10.6841 7.80615 10.6841ZM7.80615 14.3738C9.1707 14.3738 10.4361 13.9545 11.4805 13.2303L9.73481 11.4846C9.16308 11.7971 8.49986 11.9725 7.80615 11.9725C7.12007 11.9725 6.46447 11.7971 5.90036 11.4922L4.14703 13.2455C5.19141 13.9545 6.44923 14.3738 7.80615 14.3738Z" fill="black"/>
</svg>
