<svg width="44" height="30" viewBox="0 0 44 30" fill="none" xmlns="http://www.w3.org/2000/svg">
<path fill-rule="evenodd" clip-rule="evenodd" d="M27.7365 1.30434C31.3071 1.7828 32.3347 6.09356 35.4876 8.6431C37.6537 10.3947 40.8733 12.7255 42.4031 13.8204C42.9773 14.2315 43.6584 14.708 43.6625 15.4142C43.6668 16.1519 42.9549 16.6554 42.3568 17.0873C40.837 18.1845 37.7315 20.4566 35.6256 22.1988C32.5172 24.7706 31.5507 29.0485 27.9984 29.5874C27.2555 29.7001 26.6204 30.3812 26.0847 29.6051C25.549 28.829 25.5373 27.5627 26.0585 26.7768C26.5797 25.9909 39.7142 16.4381 39.7142 16.4381C39.7142 16.4381 27.9248 16.6977 20.374 16.9667C15.1987 17.151 7.96658 17.4838 4.20572 17.6615C2.58127 17.7382 0.354707 17.4195 0.33965 15.7933C0.329902 14.7407 0.872235 13.8728 1.57016 13.7877C1.63923 13.7793 1.70314 13.7811 1.77273 13.7817C2.89928 13.7911 13.4475 13.8803 20.3401 13.9981C27.8948 14.1272 39.6831 14.4382 39.6831 14.4382C39.6831 14.4382 26.3847 4.92648 25.849 4.15036C25.3133 3.37424 25.3016 2.10796 25.8228 1.32206C26.344 0.536148 26.9917 1.20453 27.7365 1.30434Z" fill="#9E1D37"/>
</svg>
