<svg width="20" height="20" viewBox="0 0 20 20"  xmlns="http://www.w3.org/2000/svg">
<path d="M13.1962 14.9517C13.1962 15.1164 13.3168 15.2388 13.4858 15.2388H15.7586L14.5598 18.6592C14.403 19.0941 14.8334 19.3264 15.1029 18.9717L18.7595 14.1747C18.8279 14.0861 18.8641 14.0016 18.8641 13.9045C18.8641 13.744 18.7434 13.6173 18.5745 13.6173H16.3017L17.5004 10.197C17.6573 9.76202 17.2269 9.52977 16.9573 9.8887L13.3008 14.6814C13.2324 14.7743 13.1962 14.8588 13.1962 14.9517Z"/>
<path fill-rule="evenodd" clip-rule="evenodd" d="M17.5038 1.55992C17.5038 0.77849 16.8948 0.14502 16.1435 0.14502H3.90076C3.14948 0.14502 2.54045 0.77849 2.54045 1.55992V4.38973C1.67037 5.31332 0.875233 6.36992 0.682473 6.71718C0.306836 7.39392 0.529756 8.25926 1.18038 8.64998C1.831 9.0407 2.66295 8.80882 3.03859 8.13209C3.28622 7.68596 4.15598 5.77391 4.53667 4.38973H6.68029C6.29654 5.62708 5.98034 7.05361 5.94725 7.43616C5.87435 8.27887 6.4699 9.0237 7.27745 9.09976C8.08499 9.17583 8.79873 8.55435 8.87163 7.71163C8.91654 7.19237 8.87784 5.824 8.68433 4.38973H11.3579C11.1863 5.72525 11.1281 7.32947 11.1675 7.73194C11.2499 8.572 11.972 9.18363 12.7805 9.09808C13.589 9.01253 14.1777 8.26217 14.0953 7.42212C14.0469 6.92787 13.7819 5.69035 13.3641 4.38973H15.4633C15.844 5.77391 16.7138 7.68596 16.9614 8.13209C17.337 8.80882 18.169 9.0407 18.8196 8.64998C19.4702 8.25926 19.6932 7.39392 19.3175 6.71718C19.1248 6.36992 18.3739 5.31332 17.5038 4.38973V1.55992ZM5.26106 2.26737C5.26106 2.65809 4.95655 2.97482 4.58091 2.97482C4.20527 2.97482 3.90076 2.65809 3.90076 2.26737C3.90076 1.87666 4.20527 1.55992 4.58091 1.55992C4.95655 1.55992 5.26106 1.87666 5.26106 2.26737ZM7.30152 2.97482C7.67715 2.97482 7.98167 2.65809 7.98167 2.26737C7.98167 1.87666 7.67715 1.55992 7.30152 1.55992C6.92588 1.55992 6.62136 1.87666 6.62136 2.26737C6.62136 2.65809 6.92588 2.97482 7.30152 2.97482Z" />
<path d="M2.54045 10.0493V14.294C2.54045 15.0755 3.14948 15.7089 3.90076 15.7089H11.8992L10.909 14.294H3.86075V10.0493H2.54045Z"/>
</svg>
