<svg width="17" height="17" viewBox="0 0 17 17"  xmlns="http://www.w3.org/2000/svg">
<path fill-rule="evenodd" clip-rule="evenodd" d="M1.96212 0.5C1.29269 0.5 0.75 1.04269 0.75 1.71212V3.65152C0.75 4.32095 1.29269 4.86364 1.96212 4.86364H15.5379C16.2073 4.86364 16.75 4.32095 16.75 3.65152V1.71212C16.75 1.04269 16.2073 0.5 15.5379 0.5H1.96212ZM15.2955 1.95455H4.62879V3.40909H15.2955V1.95455Z" />
<path fill-rule="evenodd" clip-rule="evenodd" d="M1.96212 6.31818C1.29269 6.31818 0.75 6.86087 0.75 7.5303V9.4697C0.75 10.1391 1.29269 10.6818 1.96212 10.6818H15.5379C16.2073 10.6818 16.75 10.1391 16.75 9.4697V7.5303C16.75 6.86087 16.2073 6.31818 15.5379 6.31818H1.96212ZM15.2955 7.77273H12.3864V9.22727H15.2955V7.77273Z" />
<path fill-rule="evenodd" clip-rule="evenodd" d="M1.96212 12.1364C1.29269 12.1364 0.75 12.6791 0.75 13.3485V15.2879C0.75 15.9573 1.29269 16.5 1.96212 16.5H15.5379C16.2073 16.5 16.75 15.9573 16.75 15.2879V13.3485C16.75 12.6791 16.2073 12.1364 15.5379 12.1364H1.96212ZM15.2955 13.5909H9.47727V15.0455H15.2955V13.5909Z" />
</svg>

